<?xml version="1.0" encoding="utf-8"?>
<!-- Generator: Adobe Illustrator 24.1.1, SVG Export Plug-In . SVG Version: 6.00 Build 0)  -->
<svg version="1.1" id="Layer_1" xmlns="http://www.w3.org/2000/svg" xmlns:xlink="http://www.w3.org/1999/xlink" x="0px" y="0px"
	 viewBox="0 0 512 512" style="enable-background:new 0 0 512 512;" xml:space="preserve">
<g>
	<path d="M256,0C114.6,0,0,114.6,0,256s114.6,256,256,256s256-114.6,256-256S397.4,0,256,0z M412.9,412.9
		c-40,39.9-95.2,64.5-156.1,64.5c-122.1,0-221.1-99-221.1-221.1c0-122.1,99-221.1,221.1-221.1c122.1,0,221.1,99,221.1,221.1
		c0,31.1-6.4,60.6-18,87.4l0.5-1.4C448.7,369.8,432.6,393.2,412.9,412.9L412.9,412.9z"/>
	<polygon points="134.7,240 158.9,264.2 238.9,184.1 238.9,384 273.1,384 273.1,184.1 353.1,264.2 377.3,240 256,118.8 	"/>
</g>
</svg>
